<svg width="24" height="24" viewBox="0 0 24 24" fill="none" xmlns="http://www.w3.org/2000/svg">
<path d="M11.4606 4.21234V0.933594H12.5568V4.21234H11.4606ZM7.24834 5.45284L4.80209 2.98634L5.56159 2.18934L8.04534 4.67309L7.24834 5.45284ZM4.12984 22.4306C3.966 22.4306 3.83167 22.3805 3.72684 22.2803C3.62184 22.1802 3.56934 22.0488 3.56934 21.8863V14.1991L5.60409 8.32009C5.68275 8.09393 5.81917 7.91218 6.01334 7.77484C6.2075 7.63768 6.42442 7.56909 6.66409 7.56909H9.77884V5.90959H12.5866C12.3159 6.31193 12.0963 6.74209 11.9278 7.20009C11.7593 7.65793 11.6513 8.14309 11.6038 8.65559V8.66534H6.60409L5.03759 13.1826H13.1568C13.3385 13.3926 13.5388 13.5916 13.7578 13.7796C13.977 13.9674 14.2064 14.1338 14.4461 14.2786H4.66559V19.2786H19.3333V15.0098C19.5285 14.9583 19.7163 14.8974 19.8966 14.8271C20.0771 14.7568 20.2552 14.6723 20.4308 14.5738V21.8863C20.4308 22.0488 20.3779 22.1802 20.2721 22.2803C20.1664 22.3805 20.0353 22.4306 19.8788 22.4306H19.6528C19.489 22.4306 19.3547 22.3805 19.2498 22.2803C19.1448 22.1802 19.0923 22.0488 19.0923 21.8863V20.3748H4.89234V21.8863C4.89234 22.0488 4.83942 22.1802 4.73359 22.2803C4.62792 22.3805 4.49692 22.4306 4.34059 22.4306H4.12984ZM6.50209 17.4421H9.33284C9.51984 17.4421 9.67859 17.376 9.80909 17.2438C9.93959 17.1117 10.0048 16.9537 10.0048 16.7698C10.0048 16.586 9.93859 16.4309 9.80609 16.3046C9.67342 16.1784 9.51567 16.1153 9.33284 16.1153H6.50209V17.4421ZM17.4981 17.4421V16.1153H14.6721C14.4828 16.1153 14.3234 16.1803 14.1941 16.3101C14.0648 16.4401 14.0001 16.5948 14.0001 16.7741C14.0001 16.9604 14.0658 17.1183 14.1971 17.2478C14.3286 17.3773 14.4869 17.4421 14.6721 17.4421H17.4981ZM17.0536 11.1401L20.3788 7.78059L19.8558 7.25759L17.0471 10.0988L15.5653 8.60959L15.0423 9.13534L17.0536 11.1401ZM17.7111 4.77284C18.9096 4.77284 19.9318 5.19559 20.7776 6.04109C21.6233 6.88643 22.0461 7.91001 22.0461 9.11184C22.0461 10.3137 21.6234 11.3374 20.7781 12.1831C19.9328 13.0289 18.9092 13.4518 17.7073 13.4518C16.5055 13.4518 15.4818 13.0293 14.6361 12.1841C13.7903 11.3389 13.3673 10.3136 13.3673 9.10809C13.3673 7.90943 13.7899 6.88726 14.6351 6.04159C15.4803 5.19576 16.5056 4.77284 17.7111 4.77284Z" fill="#424242"/>
</svg>
