<svg width="24" height="24" viewBox="0 0 24 24" fill="none" xmlns="http://www.w3.org/2000/svg">
<path d="M19.3396 15.0729V7.13737L13.8789 3.33462L8.43562 7.13737V10.6019H7.33962V6.60287L13.8789 1.93262L20.4356 6.60287V15.0729H19.3396ZM14.4271 8.45762H15.3309V7.55362H14.4271V8.45762ZM12.4271 8.45762H13.3309V7.55362H12.4271V8.45762ZM14.4271 10.4576H15.3309V9.55362H14.4271V10.4576ZM12.4271 10.4576H13.3309V9.55362H12.4271V10.4576ZM6.25012 18.9191L14.0156 21.2269L20.1444 19.3134C20.1707 18.9345 20.0683 18.6443 19.8371 18.4426C19.606 18.2411 19.3257 18.1404 18.9964 18.1404H14.0029C13.6997 18.1404 13.3981 18.1211 13.0981 18.0826C12.7981 18.0441 12.5033 17.9736 12.2136 17.8711L9.91562 17.1681L10.2964 16.0519L12.5661 16.8519C12.7888 16.9377 13.0258 16.992 13.2771 17.0149C13.5283 17.0375 13.7975 17.0473 14.0849 17.0441H15.1481C15.1481 16.6786 15.0443 16.3712 14.8366 16.1219C14.629 15.8725 14.3713 15.687 14.0636 15.5654L8.57887 13.5056L8.52137 13.4914C8.50854 13.488 8.49246 13.4864 8.47312 13.4864H6.25012V18.9191ZM1.78662 21.4229V12.3904H8.44187C8.52637 12.3904 8.60737 12.398 8.68487 12.4134C8.76237 12.4287 8.84721 12.4467 8.93937 12.4674L14.4231 14.5249C14.9391 14.7134 15.3794 15.0185 15.7439 15.4404C16.1082 15.862 16.2904 16.3966 16.2904 17.0441H18.9964C19.7127 17.0441 20.2962 17.2955 20.7469 17.7984C21.1977 18.3014 21.4231 18.905 21.4231 19.6094V20.1326L14.1339 22.3729L6.25012 20.0806V21.4229H1.78662ZM2.88287 20.3269H5.12887V13.4864H2.88287V20.3269Z" fill="#424242"/>
</svg>
