<svg width="24" height="25" viewBox="0 0 24 25" fill="none" xmlns="http://www.w3.org/2000/svg">
<path d="M5.50879 21.1884V20.0922H10.628V17.1327H10.0933C8.80679 17.1327 7.72112 16.6897 6.83629 15.8037C5.95129 14.9177 5.50879 13.8309 5.50879 12.5434C5.50879 11.5779 5.78296 10.7041 6.33129 9.92192C6.87962 9.13992 7.61762 8.58384 8.54529 8.25367C8.57479 7.55817 8.86512 7.00083 9.41629 6.58167C9.96762 6.1625 10.5818 6.03267 11.2588 6.19217L10.6663 4.56342L11.6645 4.20467L11.3145 3.27192L12.6355 2.78467L12.9855 3.71142L13.932 3.38842L16.5855 10.3729L15.5855 10.7307L15.9278 11.6654L14.6473 12.1287L14.2893 11.2019L13.2588 11.6114L12.624 9.82492C12.39 10.1211 12.1091 10.3442 11.7813 10.4942C11.4535 10.6442 11.0989 10.714 10.7175 10.7037C10.2747 10.6998 9.87179 10.5698 9.50879 10.3134C9.14596 10.0569 8.87737 9.72483 8.70304 9.31717C8.06004 9.59733 7.54962 10.0271 7.17179 10.6064C6.79379 11.1859 6.60479 11.8331 6.60479 12.5479C6.60479 13.5218 6.93987 14.3467 7.61004 15.0227C8.28021 15.6985 9.10854 16.0364 10.095 16.0364H18.2818V17.1327H12.3163V20.0922H18.5085V21.1884H5.50879ZM13.9145 10.3307L15.324 9.80767L13.3338 4.57867L11.9125 5.07292L13.9145 10.3307ZM10.8265 9.71717C11.1897 9.71717 11.4977 9.59483 11.7505 9.35017C12.0034 9.1055 12.1298 8.79842 12.1298 8.42892C12.1298 8.05958 12.0051 7.74925 11.7558 7.49792C11.5063 7.24675 11.2 7.12117 10.837 7.12117C10.4624 7.12117 10.1515 7.24508 9.90429 7.49292C9.65729 7.74075 9.53379 8.04783 9.53379 8.41417C9.53379 8.78667 9.65554 9.097 9.89904 9.34517C10.1427 9.59317 10.4519 9.71717 10.8265 9.71717Z" fill="#424242"/>
</svg>
