<svg width="240" height="70" viewBox="0 0 240 70" fill="none" xmlns="http://www.w3.org/2000/svg">
<path d="M69.4692 20.4634C68.0181 20.4634 66.6674 20.8825 65.5257 21.6005C65.0313 21.9103 64.5755 22.2729 64.1695 22.6865C64.1225 22.7339 64.0747 22.7804 64.0295 22.8296C63.9596 22.9052 63.8887 22.9817 63.8251 23.0574C63.8169 23.0674 63.8086 23.0792 63.7994 23.0902C63.745 23.1539 63.6962 23.2223 63.6438 23.2879C63.5848 23.3626 63.5241 23.4346 63.467 23.5129C63.4605 23.5129 63.4605 23.5193 63.4541 23.5321C63.4476 23.5321 63.4476 23.5384 63.4412 23.5448C63.4191 23.5758 63.3952 23.6132 63.3712 23.6478C63.3482 23.6806 63.3261 23.7143 63.304 23.748C63.3031 23.7498 63.3013 23.7516 63.3003 23.7535C63.1963 23.9065 63.1015 24.0642 63.0112 24.2245C62.9744 24.2892 62.9412 24.3557 62.9063 24.4222C62.874 24.4842 62.839 24.5443 62.8077 24.6072C62.7792 24.6637 62.7571 24.7229 62.7313 24.7812C62.6825 24.8887 62.6365 24.9972 62.5932 25.1065C62.5361 25.245 62.4837 25.3862 62.4367 25.5293C62.4164 25.5921 62.398 25.6559 62.3796 25.7188C62.3658 25.768 62.3483 25.8163 62.3354 25.8655C62.3096 25.9538 62.2903 26.0358 62.2719 26.1251C62.2654 26.147 62.2627 26.1689 62.2572 26.1907C62.2424 26.2554 62.2277 26.3192 62.2157 26.3839L62.2139 26.3903C62.2074 26.4212 62.2056 26.455 62.1991 26.4869C62.1236 26.9069 62.0767 27.3369 62.0767 27.7788V41.0503H62.0795V41.0522C62.0795 45.227 58.647 48.6227 54.4228 48.6227C50.1985 48.6227 46.7716 45.226 46.7716 41.0522C46.7716 40.8882 46.7651 40.7232 46.7522 40.5592C46.7522 40.4964 46.7458 40.4326 46.7393 40.3697C46.7393 40.3442 46.7329 40.3251 46.7329 40.3069C46.72 40.1738 46.7007 40.0472 46.6813 39.9214C46.6556 39.7574 46.6243 39.5925 46.592 39.434C46.5469 39.2445 46.4963 39.0604 46.4383 38.8773C46.4254 38.8263 46.406 38.7762 46.3867 38.7315C46.348 38.5985 46.2974 38.46 46.2394 38.3334C46.1814 38.1748 46.1114 38.0236 46.0414 37.8778C46.035 37.865 46.0285 37.8523 46.0221 37.8395C45.8619 37.5106 45.6768 37.2072 45.4724 36.9102C45.3896 36.7899 45.3003 36.676 45.21 36.5621C45.1207 36.4482 45.0314 36.3343 44.9292 36.2268C44.5397 35.784 44.0987 35.3922 43.6061 35.0506C43.491 34.9686 43.376 34.892 43.2544 34.8228C43.1264 34.7471 42.9985 34.6706 42.8705 34.6014C42.5188 34.4182 42.1606 34.2597 41.784 34.133C41.7141 34.1075 41.6432 34.082 41.5732 34.0638C41.4517 34.0255 41.3301 33.9946 41.2086 33.9627C41.0677 33.9244 40.9278 33.8934 40.7869 33.8679C40.7547 33.8615 40.7298 33.8552 40.704 33.8552C40.5954 33.836 40.4867 33.8169 40.3781 33.8041C40.193 33.7786 40.0135 33.7595 39.8284 33.7476C39.6747 33.7413 39.5283 33.7349 39.3745 33.7349C35.2966 33.7349 31.9857 37.0113 31.9857 41.0531C31.9857 45.0948 28.5533 48.6236 24.3355 48.6236C20.1177 48.6236 16.6788 45.227 16.6788 41.0531V36.5111V27.7797C16.6788 27.5264 16.6659 27.2759 16.6401 27.0299C16.6355 26.9816 16.6244 26.9351 16.618 26.8877C16.5941 26.6919 16.5674 26.496 16.5278 26.3055C16.5011 26.1771 16.4624 26.0532 16.4293 25.9274C16.4007 25.8199 16.3786 25.7097 16.3455 25.6049C16.3234 25.5356 16.2939 25.4691 16.27 25.4008C15.8216 24.1134 15.0279 22.9854 13.9884 22.1362C12.7105 21.093 11.0734 20.4652 9.28907 20.4652C8.01204 20.4652 6.81142 20.785 5.76364 21.349C4.5621 21.9941 3.56772 22.9635 2.88547 24.1334C2.85324 24.1881 2.81734 24.2391 2.78695 24.2938C2.76946 24.3257 2.75565 24.3603 2.73908 24.3931C2.2023 25.4063 1.89478 26.5561 1.89478 27.777V41.0531C1.89478 53.2923 11.9619 63.2536 24.3355 63.2536C24.5721 63.2536 24.8087 63.2473 25.0389 63.2409C25.3078 63.2345 25.5692 63.2217 25.8252 63.2026C26.0554 63.1899 26.2791 63.1707 26.5029 63.1516C27.2063 63.0823 27.8895 62.9876 28.5671 62.8546C28.7328 62.8227 28.8995 62.7917 29.0652 62.7534C29.3589 62.6906 29.6471 62.6268 29.9344 62.5512C29.9473 62.5512 29.9666 62.5448 29.9795 62.5384C30.2667 62.4692 30.5549 62.3862 30.8358 62.2979C31.1295 62.2159 31.4177 62.1211 31.6985 62.02C31.9857 61.9252 32.2675 61.8177 32.5483 61.7102C32.8613 61.5899 33.1679 61.4569 33.469 61.3248C33.8336 61.1662 34.1844 61.0022 34.5361 60.8191C34.7921 60.6925 35.0407 60.5594 35.2838 60.4209C35.6677 60.2123 36.0443 59.9845 36.4153 59.7503C36.6133 59.6237 36.8048 59.4971 37.0037 59.3649C37.278 59.1754 37.5533 58.9795 37.8222 58.7827C38.0846 58.5868 38.3396 58.3846 38.5956 58.1823C38.602 58.1759 38.6085 58.1695 38.6149 58.1632C38.8773 57.9481 39.1324 57.7331 39.3819 57.5117C39.8487 57.9354 40.3339 58.3335 40.8394 58.7135C40.8965 58.7581 40.948 58.7955 41.0051 58.8401C41.2482 59.0169 41.4968 59.1946 41.7463 59.3649C41.9442 59.498 42.1357 59.6246 42.3346 59.7503C42.4884 59.8451 42.6412 59.9399 42.795 60.0346C43.0187 60.1676 43.2425 60.2943 43.4662 60.42C43.7157 60.5594 43.9643 60.6915 44.2138 60.8182C44.3031 60.8628 44.386 60.9066 44.4762 60.9512C44.7128 61.0651 44.9559 61.179 45.1916 61.2865C45.2238 61.2993 45.2551 61.312 45.2809 61.3248C45.5875 61.4578 45.8941 61.5844 46.2016 61.7102C46.8406 61.9635 47.4989 62.1849 48.1701 62.3744C48.3046 62.4127 48.4445 62.45 48.5789 62.4883C48.9435 62.5894 49.3072 62.6778 49.6783 62.7543C49.8505 62.7926 50.0236 62.8236 50.1893 62.8555C50.4646 62.912 50.7325 62.9566 51.0078 62.9949C51.1487 63.0204 51.2951 63.0395 51.4359 63.0577C52.4137 63.1844 53.4109 63.2536 54.4209 63.2536C66.6674 63.2536 76.6572 53.4945 76.8552 41.4257C76.8552 41.3055 76.8616 41.1788 76.8616 41.0522V27.7761C76.8616 23.7407 73.5507 20.4643 69.4664 20.4643L69.4692 20.4634Z" fill="#1A96F0"/>
<path d="M100.265 29.6675L94.7199 41.4712L89.1698 29.6675H80.1514L90.4671 49.3788L81.9099 65.1496H90.7111L109.283 29.6675H100.264H100.265Z" fill="black"/>
<path d="M135.879 32.2805C133.89 30.0893 131.241 28.9932 127.933 28.9932C126.404 28.9932 124.961 29.3175 123.61 29.9708C122.255 30.6241 121.183 31.5489 120.381 32.7406H120.283L119.77 29.6683H112.466V54.2405H120.775V41.472C120.775 40.0515 121.249 38.8461 122.201 37.8557C123.158 36.8653 124.301 36.3697 125.638 36.3697C126.976 36.3697 128.168 36.8562 129.12 37.8338C130.072 38.8069 130.55 39.9905 130.55 41.3754V54.2405H138.86V40.5782C138.86 37.238 137.864 34.4763 135.879 32.2805Z" fill="black"/>
<path d="M163.468 18.5691V32.6916H163.321C162.688 31.6137 161.673 30.7236 160.278 30.0311C158.887 29.3386 157.421 28.9924 155.893 28.9924C152.664 28.9924 149.794 30.2069 147.278 32.6305C144.758 35.0587 143.499 38.1493 143.499 41.9058C143.499 45.6624 144.766 48.8268 147.3 51.2549C149.834 53.6831 152.753 54.8931 156.062 54.8931C157.661 54.8931 159.224 54.5815 160.756 53.951C162.285 53.3241 163.352 52.413 163.959 51.2203H164.105L164.468 54.2407H171.776V18.5691H163.467H163.468ZM161.758 46.0168C160.615 47.1476 159.246 47.7134 157.652 47.7134C156.057 47.7134 154.689 47.1476 153.559 46.0168C152.425 44.8907 151.858 43.5358 151.858 41.9532C151.858 40.3706 152.426 39.0258 153.559 37.9032C154.689 36.7807 156.052 36.224 157.652 36.224C159.251 36.224 160.615 36.7807 161.758 37.9032C162.896 39.0258 163.468 40.3751 163.468 41.9532C163.468 43.5313 162.896 44.8898 161.758 46.0168Z" fill="black"/>
<path d="M226.818 40.9635L237.037 29.6683H226.77L218.757 38.8862H218.606V18.5698H210.296V54.2405H218.606V43.0455H218.757L227.017 54.2405H237.475L226.818 40.9635H226.818Z" fill="black"/>
<path d="M64.2902 6.22595C66.4364 8.60399 66.1224 12.2868 63.5923 14.2612C56.9318 19.4592 48.5229 22.5598 39.382 22.5598C30.2411 22.5598 21.8321 19.4583 15.1717 14.2612C12.6415 12.2868 12.3275 8.60308 14.4737 6.22595C16.4376 4.05017 19.7752 3.7495 22.0899 5.55535C26.8464 9.2682 32.8541 11.485 39.382 11.485C45.9099 11.485 51.9176 9.2682 56.674 5.55535C58.9887 3.74859 62.3263 4.05017 64.2902 6.22595Z" fill="#1A96F0"/>
<path d="M205.154 40.5426C205.154 40.5207 205.149 40.5034 205.149 40.4815C205.11 40.0342 205.047 39.6005 204.963 39.1704C204.932 39.0301 204.902 38.8852 204.87 38.7449C204.799 38.4379 204.711 38.1354 204.613 37.8374C204.09 36.242 203.218 34.7779 201.996 33.4449C201.845 33.2781 201.685 33.116 201.522 32.9538C201.362 32.787 201.194 32.6294 201.021 32.4718C198.235 29.9343 194.908 28.6624 191.037 28.6624C189.102 28.6624 187.299 28.9822 185.634 29.6136C185.222 29.7758 184.814 29.9507 184.416 30.1484C184.416 30.1484 184.414 30.1484 184.411 30.1484C184.012 30.3498 183.626 30.5693 183.246 30.8062H183.242C183.1 30.8983 182.958 30.9903 182.816 31.0823C182.395 31.3721 181.984 31.6782 181.581 32.0117C181.404 32.1602 181.226 32.3142 181.054 32.4718C180.881 32.6294 180.713 32.7916 180.549 32.9538C180.089 33.4139 179.677 33.8877 179.3 34.3742C179.176 34.5364 179.056 34.7031 178.941 34.8699C177.564 36.8689 176.877 39.1221 176.877 41.6286C176.877 43.4081 177.227 45.0609 177.918 46.5815C178.006 46.7747 178.099 46.9633 178.202 47.1519C178.424 47.5728 178.667 47.9801 178.941 48.3792C179.127 48.6425 179.322 48.9049 179.53 49.1591V49.1637C179.743 49.4224 179.96 49.6721 180.19 49.9172C180.305 50.0402 180.425 50.1623 180.549 50.2853C180.713 50.4474 180.882 50.6096 181.054 50.7672C181.749 51.4023 182.48 51.9554 183.246 52.4282C183.437 52.5467 183.627 52.6606 183.822 52.7699C184.017 52.8792 184.211 52.9804 184.411 53.0815C185.452 53.599 186.546 53.9799 187.702 54.2213C188.299 54.3525 188.911 54.4446 189.536 54.4974C189.575 54.5065 189.616 54.5102 189.655 54.5102C190.107 54.5457 190.568 54.563 191.033 54.563C191.498 54.563 191.994 54.5411 192.459 54.5065H192.464C192.813 54.4801 193.159 54.4364 193.496 54.3835C193.836 54.3307 194.173 54.2696 194.501 54.1949C195.166 54.0501 195.812 53.8578 196.436 53.6164C196.853 53.4542 197.256 53.2783 197.655 53.0815C198.053 52.8884 198.447 52.6697 198.829 52.4282C198.97 52.3408 199.112 52.2487 199.254 52.1522C199.533 51.9636 199.812 51.7622 200.083 51.5517C200.22 51.447 200.357 51.3413 200.49 51.2274C200.667 51.0825 200.845 50.9249 201.022 50.7672C201.195 50.6096 201.362 50.452 201.523 50.2853C201.85 49.9655 202.156 49.632 202.44 49.2903C202.723 48.9486 202.985 48.5979 203.223 48.2425C203.471 47.8744 203.697 47.5018 203.896 47.1164C203.998 46.9232 204.091 46.73 204.18 46.5287C204.268 46.3355 204.353 46.1342 204.427 45.9328C204.481 45.8016 204.53 45.6658 204.574 45.5292C204.68 45.2221 204.769 44.9114 204.848 44.5953C204.906 44.3584 204.959 44.1169 205.003 43.8764C205.132 43.1447 205.198 42.3949 205.198 41.6232C205.198 41.2551 205.185 40.8952 205.154 40.5407V40.5426ZM196.397 43.9174C196.104 44.5442 195.68 45.1274 195.13 45.6668C193.961 46.8111 192.592 47.3851 191.024 47.3851C189.456 47.3851 188.105 46.8111 186.958 45.6668C186.395 45.1055 185.97 44.4969 185.686 43.8436C185.393 43.1857 185.248 42.4805 185.239 41.7261C185.234 41.6951 185.234 41.6605 185.234 41.6295C185.234 40.0779 185.806 38.7367 186.957 37.6014C187.723 36.8388 188.586 36.3304 189.543 36.0853C189.76 36.0243 189.981 35.9796 190.208 35.9541C190.474 35.9149 190.744 35.8976 191.023 35.8976C191.155 35.8976 191.289 35.9022 191.417 35.9104C191.798 35.9323 192.17 35.9933 192.524 36.0862C193.481 36.3404 194.349 36.8443 195.129 37.6024C196.303 38.7376 196.892 40.0788 196.892 41.6305C196.892 41.9329 196.87 42.2263 196.826 42.5161C196.746 43.0072 196.604 43.4764 196.396 43.9183L196.397 43.9174Z" fill="black"/>
</svg>
