<svg width="119" height="130" viewBox="0 0 119 130" fill="none" xmlns="http://www.w3.org/2000/svg">
<g filter="url(#filter0_d_6570_2959)">
<path d="M59.2157 20C48.6201 20 40 28.7481 40 39.501C40 52.8456 57.1962 68.5901 57.9283 69.4175C58.616 70.1948 59.8166 70.1935 60.5031 69.4175C61.2352 68.5901 78.4314 52.8456 78.4314 39.501C78.4312 28.7481 69.8112 20 59.2157 20Z" fill="#3998E8"/>
</g>
<g clip-path="url(#clip0_6570_2959)">
<path d="M51.9659 42.1927C50.0838 39.6812 48.407 37.2724 48.407 33.8642C48.407 31.5308 50.3704 30.7146 51.6106 30.4316" stroke="white" stroke-width="1.16269" stroke-linecap="round" stroke-linejoin="round"/>
<path d="M53.5726 30.284C53.5726 30.7686 53.1382 31.1608 52.6012 31.1608C52.1322 31.1608 51.7407 30.8602 51.6498 30.4606C51.637 30.4026 51.6306 30.3434 51.6306 30.284C51.6306 29.7995 52.065 29.4072 52.6012 29.4072C53.1375 29.4072 53.5726 29.7995 53.5726 30.284Z" stroke="white" stroke-width="1.16269" stroke-linecap="round" stroke-linejoin="round"/>
<path d="M60.6519 30.284C60.6519 30.7686 61.0862 31.1608 61.6225 31.1608C62.0923 31.1608 62.4838 30.8602 62.5746 30.4606C62.5874 30.4026 62.5938 30.3434 62.5938 30.284C62.5938 29.7995 62.1595 29.4072 61.6225 29.4072C61.0855 29.4072 60.6519 29.7995 60.6519 30.284Z" stroke="white" stroke-width="1.16269" stroke-linecap="round" stroke-linejoin="round"/>
<path d="M62.2585 42.1934C64.1399 39.682 65.8174 37.2732 65.8174 33.8642C65.8174 31.5404 63.8703 30.7212 62.6294 30.4346" stroke="white" stroke-width="1.16269" stroke-linecap="round" stroke-linejoin="round"/>
<path d="M48.407 33.8642C48.407 31.5308 50.3704 30.7146 51.6106 30.4316" stroke="white" stroke-width="1.16269" stroke-linecap="round" stroke-linejoin="round"/>
<path d="M62.274 42.205C62.0616 42.0321 61.7892 41.9505 61.5166 41.9782C61.2441 42.0059 60.9936 42.1406 60.8203 42.3528C59.6976 43.7254 58.4569 44.9971 57.1122 46.1532C55.7674 44.997 54.5264 43.7253 53.4033 42.3528C53.3205 42.2399 53.2155 42.145 53.0949 42.0739C52.9742 42.0028 52.8404 41.9569 52.7015 41.9391C52.5626 41.9213 52.4215 41.9318 52.2868 41.9701C52.1521 42.0085 52.0266 42.0737 51.9179 42.162C51.8092 42.2503 51.7195 42.3598 51.6544 42.4837C51.5892 42.6077 51.5499 42.7436 51.5389 42.8832C51.5278 43.0228 51.5452 43.1632 51.5901 43.2959C51.6349 43.4286 51.7062 43.5507 51.7997 43.655C54.0792 46.462 56.3876 48.2348 56.4851 48.3086L56.4976 48.3168C56.5367 48.3456 56.5777 48.3718 56.6202 48.3951L56.6299 48.401C56.7227 48.4495 56.8223 48.4838 56.9253 48.5029L56.9556 48.5081C57.006 48.516 57.0568 48.5202 57.1078 48.5206H57.1115C57.1627 48.5202 57.2138 48.516 57.2644 48.5081L57.2947 48.5029C57.3977 48.4838 57.4973 48.4495 57.5901 48.401L57.5997 48.3951C57.6423 48.3718 57.6833 48.3456 57.7223 48.3168L57.7349 48.3086C59.4587 46.9296 61.0295 45.3694 62.4203 43.655C62.5922 43.443 62.6734 43.1715 62.646 42.8999C62.6186 42.6282 62.4849 42.3785 62.274 42.205Z" stroke="white" stroke-width="1.16269" stroke-linecap="round" stroke-linejoin="round"/>
<path d="M66.5256 49.9436C66.5256 49.9436 65.9302 54.5972 61.9459 54.5972C58.2865 54.5972 57.3041 51.8435 57.1445 48.5254" stroke="white" stroke-width="1.16269" stroke-linecap="round" stroke-linejoin="round"/>
<path d="M69.0209 48.0166C69.0209 49.0685 68.1345 49.9209 67.0331 49.9209C65.9318 49.9209 65.0483 49.0714 65.0483 48.0166C65.0483 46.9618 65.9384 46.1123 67.0361 46.1123C68.1338 46.1123 69.0209 46.9647 69.0209 48.0166Z" stroke="white" stroke-width="1.16269" stroke-linecap="round" stroke-linejoin="round"/>
<path d="M67.294 48.0161C67.2962 48.0683 67.2827 48.1199 67.2554 48.1643C67.228 48.2088 67.1879 48.244 67.1403 48.2655C67.0927 48.287 67.0398 48.2937 66.9883 48.2849C66.9369 48.276 66.8893 48.2519 66.8516 48.2158C66.8139 48.1796 66.788 48.133 66.777 48.0819C66.7661 48.0309 66.7707 47.9777 66.7902 47.9293C66.8098 47.8809 66.8434 47.8394 66.8867 47.8103C66.93 47.7811 66.981 47.7656 67.0332 47.7657C67.0668 47.765 67.1002 47.7709 67.1314 47.7831C67.1627 47.7954 67.1913 47.8136 67.2155 47.8369C67.2397 47.8601 67.2591 47.8879 67.2726 47.9187C67.286 47.9494 67.2933 47.9825 67.294 48.0161Z" stroke="white" stroke-width="1.16269" stroke-linecap="round" stroke-linejoin="round"/>
</g>
<defs>
<filter id="filter0_d_6570_2959" x="0" y="0" width="118.431" height="130" filterUnits="userSpaceOnUse" color-interpolation-filters="sRGB">
<feFlood flood-opacity="0" result="BackgroundImageFix"/>
<feColorMatrix in="SourceAlpha" type="matrix" values="0 0 0 0 0 0 0 0 0 0 0 0 0 0 0 0 0 0 127 0" result="hardAlpha"/>
<feOffset dy="20"/>
<feGaussianBlur stdDeviation="20"/>
<feColorMatrix type="matrix" values="0 0 0 0 0.314315 0 0 0 0 0.376772 0 0 0 0 0.406356 0 0 0 0.5 0"/>
<feBlend mode="normal" in2="BackgroundImageFix" result="effect1_dropShadow_6570_2959"/>
<feBlend mode="normal" in="SourceGraphic" in2="effect1_dropShadow_6570_2959" result="shape"/>
</filter>
<clipPath id="clip0_6570_2959">
<rect width="21.4265" height="26.0063" fill="white" transform="translate(48 29)"/>
</clipPath>
</defs>
</svg>
