<svg width="20" height="19" viewBox="0 0 20 19" fill="none" xmlns="http://www.w3.org/2000/svg">
<path d="M11.4843 18.9567C9.77594 18.9567 8.35136 18.3597 7.21052 17.1657C6.06952 15.9719 5.49902 14.541 5.49902 12.873V12.0885C4.15619 11.9468 3.02877 11.3752 2.11677 10.3737C1.20494 9.37224 0.749023 8.18691 0.749023 6.81774V1.26799H3.74902V0.260742H4.84527V3.35674H3.74902V2.35674H1.84527V6.80374C1.84527 7.98591 2.25186 8.98258 3.06502 9.79374C3.87819 10.6049 4.86936 11.0105 6.03852 11.0105C7.20769 11.0105 8.20177 10.6049 9.02077 9.79374C9.83961 8.98258 10.249 7.98633 10.249 6.80499V2.35674H8.34527V3.35674H7.24902V0.260742H8.34527V1.26074H11.3453V6.81624C11.3453 8.18641 10.8864 9.37224 9.96877 10.3737C9.05111 11.3752 7.92661 11.9468 6.59527 12.0885V12.873C6.59527 14.2487 7.05736 15.4238 7.98152 16.3985C8.90569 17.3732 10.0711 17.8605 11.4778 17.8605C12.8176 17.8605 13.9686 17.3747 14.9308 16.403C15.8929 15.4313 16.374 14.2515 16.374 12.8635V11.0497C15.8549 10.9256 15.4238 10.6534 15.0808 10.2332C14.7378 9.81291 14.5663 9.32033 14.5663 8.75549C14.5663 8.10366 14.7952 7.54733 15.253 7.08649C15.7109 6.62566 16.2668 6.39524 16.9208 6.39524C17.5749 6.39524 18.1313 6.62566 18.5898 7.08649C19.0484 7.54749 19.2778 8.10724 19.2778 8.76574C19.2778 9.32358 19.1034 9.81266 18.7548 10.233C18.4061 10.6533 17.9779 10.9257 17.4703 11.0502V12.873C17.4703 14.57 16.8853 16.0082 15.7153 17.1877C14.5454 18.3671 13.1351 18.9567 11.4843 18.9567ZM16.9113 10.0105C17.2614 10.0105 17.5607 9.88999 17.809 9.64899C18.0575 9.40783 18.1818 9.11216 18.1818 8.76199C18.1818 8.41166 18.06 8.11233 17.8165 7.86399C17.5732 7.61566 17.2747 7.49149 16.921 7.49149C16.5672 7.49149 16.269 7.61316 16.0265 7.85649C15.7839 8.09999 15.6625 8.39858 15.6625 8.75224C15.6625 9.10591 15.783 9.40408 16.024 9.64674C16.2652 9.88924 16.5609 10.0105 16.9113 10.0105Z" fill="#424242"/>
</svg>
